<svg width="120" height="26" viewBox="0 0 120 26" fill="none" xmlns="http://www.w3.org/2000/svg">
<path fill-rule="evenodd" clip-rule="evenodd" d="M116.198 3.82707C113.63 1.24121 110.65 0 107.055 0C103.459 0 100.376 1.24121 97.9107 3.82707C95.3423 6.30949 94.1094 9.41252 94.1094 12.9293C94.1094 20.1697 99.8628 25.8586 107.055 25.8586C114.246 25.8586 120 20.1697 120 12.9293C120 9.41252 118.664 6.30949 116.198 3.82707ZM15.6164 3.41366C13.2534 1.34497 9.86301 0.414062 5.34246 0.414062H0V25.4452H5.23972C9.86301 25.4452 13.3562 24.4108 15.7192 22.2387C18.3904 19.7563 19.8288 16.7567 19.8288 12.9296C19.8288 8.99911 18.3904 5.79265 15.6164 3.41366ZM23.1172 0.414062H27.2268V25.4452H23.1172V0.414062ZM5.34303 21.5148C8.83618 21.5148 11.4047 20.6873 12.9458 19.2393C14.6923 17.5843 15.617 15.5156 15.617 12.9298C15.617 10.2405 14.6923 8.06836 12.843 6.41341C11.3019 5.06877 8.83618 4.34473 5.34303 4.34473H4.21289V21.5148H5.34303ZM106.953 21.8247C109.419 21.8247 111.473 20.9972 113.22 19.2389C114.966 17.5839 115.788 15.4118 115.788 12.9294C115.788 10.4469 114.966 8.27482 113.22 6.61987C111.473 4.86149 109.419 3.93058 106.85 3.82715C104.487 3.82715 102.33 4.65462 100.686 6.41301C99.0418 8.17139 98.1172 10.3435 98.1172 12.8259C98.1172 17.7908 102.021 21.8247 106.953 21.8247ZM78.9043 25.4452H92.4659V21.5147H83.0139V13.7571H91.644V9.82659H82.9111V4.34457H92.4659V0.414062H78.9043V25.4452ZM64.9304 12.1018H76.0263L76.129 12.8259C76.2318 14.6877 76.0263 16.2392 75.718 17.4804C75.3071 19.0319 74.5879 20.3766 73.5605 21.6178C72.4304 22.9624 71.0948 23.9968 69.4509 24.7208C67.8071 25.4448 66.0605 25.8586 64.3139 25.8586C57.3276 25.8586 51.5742 20.0663 51.5742 13.0327C51.5742 5.79232 57.3276 0 64.5194 0C68.7318 0 72.3276 1.75838 74.9989 5.37858L71.9167 8.06788C69.8619 5.37858 67.4989 3.9305 64.5194 3.9305C62.0537 3.9305 59.9989 4.75798 58.355 6.51636C56.5057 8.37818 55.6838 10.5503 55.6838 13.0327C55.6838 15.4117 56.6085 17.4804 58.2523 19.1354C60.1016 20.9972 62.0537 21.9281 64.3139 21.9281C66.1633 21.9281 67.9098 21.3075 69.4509 20.0663C70.7865 18.9285 71.6085 17.5838 71.8139 16.0323H64.9304V12.1018ZM39.658 0.310547L28.7676 25.4451H33.2881L35.6511 19.8596C35.6511 19.7562 35.7539 19.5493 35.7539 19.5493C35.8174 19.5493 35.8809 19.5888 35.9686 19.6434C36.0229 19.6772 36.0864 19.7167 36.1648 19.7562C37.5005 20.2734 39.1443 20.5837 40.6854 20.5837C42.2265 20.5837 43.7676 20.2734 44.6922 19.9631C45.2059 19.8596 45.3087 19.7562 45.4114 19.6528C45.4114 19.6528 45.5141 19.8596 45.5141 19.9631L47.7744 25.4451H52.3977L41.7128 0.310547H39.658ZM40.6834 16.6532C41.7108 16.6532 42.7382 16.4464 43.5601 16.2395L43.9711 16.1361C43.9711 15.9292 43.8683 15.7223 43.7656 15.6189L40.6834 7.86133L37.4984 15.5155C37.4984 15.6189 37.3957 15.8258 37.293 16.0326C37.3957 16.0326 37.6012 16.1361 37.8067 16.2395C38.7313 16.5498 39.656 16.6532 40.6834 16.6532Z" fill="black"/>
</svg>
